<mxfile host="Electron" modified="2023-04-28T22:58:29.018Z" agent="Mozilla/5.0 (Windows NT 10.0; Win64; x64) AppleWebKit/537.36 (KHTML, like Gecko) draw.io/21.2.1 Chrome/112.0.5615.87 Electron/24.1.2 Safari/537.36" etag="33r0sNb4PJfThMlHC9UK" version="21.2.1" type="device">
  <diagram name="Page-1" id="sfVACJkW_csDLmUVDfcl">
    <mxGraphModel dx="3464" dy="1573" grid="1" gridSize="10" guides="1" tooltips="1" connect="1" arrows="1" fold="1" page="1" pageScale="1" pageWidth="2000" pageHeight="2000" math="1" shadow="0">
      <root>
        <mxCell id="0" />
        <mxCell id="1" parent="0" />
        <mxCell id="ia9NDkQKJK2XyitmC3DI-52" value="" style="rounded=1;whiteSpace=wrap;html=1;opacity=50;fillColor=#e1d5e7;strokeColor=#9673a6;" vertex="1" parent="1">
          <mxGeometry y="40" width="1150" height="390" as="geometry" />
        </mxCell>
        <mxCell id="ia9NDkQKJK2XyitmC3DI-21" style="edgeStyle=orthogonalEdgeStyle;rounded=0;orthogonalLoop=1;jettySize=auto;html=1;entryX=0;entryY=0.5;entryDx=0;entryDy=0;" edge="1" parent="1" source="ia9NDkQKJK2XyitmC3DI-4" target="ia9NDkQKJK2XyitmC3DI-20">
          <mxGeometry relative="1" as="geometry" />
        </mxCell>
        <mxCell id="ia9NDkQKJK2XyitmC3DI-51" style="edgeStyle=orthogonalEdgeStyle;rounded=0;orthogonalLoop=1;jettySize=auto;html=1;" edge="1" parent="1" source="ia9NDkQKJK2XyitmC3DI-4" target="ia9NDkQKJK2XyitmC3DI-49">
          <mxGeometry relative="1" as="geometry" />
        </mxCell>
        <mxCell id="ia9NDkQKJK2XyitmC3DI-56" style="edgeStyle=orthogonalEdgeStyle;rounded=0;orthogonalLoop=1;jettySize=auto;html=1;" edge="1" parent="1" target="ia9NDkQKJK2XyitmC3DI-4">
          <mxGeometry relative="1" as="geometry">
            <mxPoint x="-20" y="120" as="sourcePoint" />
          </mxGeometry>
        </mxCell>
        <mxCell id="ia9NDkQKJK2XyitmC3DI-4" value="Input values \(I\)&lt;br&gt;$$[l, u]$$" style="rounded=1;whiteSpace=wrap;html=1;fillColor=#dae8fc;strokeColor=#6c8ebf;" vertex="1" parent="1">
          <mxGeometry x="20" y="90" width="120" height="60" as="geometry" />
        </mxCell>
        <mxCell id="ia9NDkQKJK2XyitmC3DI-8" value="" style="rounded=1;whiteSpace=wrap;html=1;opacity=25;dashed=1;textOpacity=25;fillColor=#f8cecc;strokeColor=#b85450;" vertex="1" parent="1">
          <mxGeometry x="180" y="130" width="120" height="60" as="geometry" />
        </mxCell>
        <mxCell id="ia9NDkQKJK2XyitmC3DI-9" value="" style="rounded=1;whiteSpace=wrap;html=1;opacity=50;textOpacity=50;fillColor=#f8cecc;strokeColor=#b85450;" vertex="1" parent="1">
          <mxGeometry x="190" y="140" width="120" height="60" as="geometry" />
        </mxCell>
        <mxCell id="ia9NDkQKJK2XyitmC3DI-10" value="Keys \(K=IW^k\)&lt;br&gt;\([h, l, d_k]\)" style="rounded=1;whiteSpace=wrap;html=1;fillColor=#f8cecc;strokeColor=#b85450;" vertex="1" parent="1">
          <mxGeometry x="200" y="150" width="120" height="60" as="geometry" />
        </mxCell>
        <mxCell id="ia9NDkQKJK2XyitmC3DI-11" value="" style="rounded=1;whiteSpace=wrap;html=1;opacity=25;dashed=1;textOpacity=25;fillColor=#fff2cc;strokeColor=#d6b656;" vertex="1" parent="1">
          <mxGeometry x="180" y="220" width="120" height="60" as="geometry" />
        </mxCell>
        <mxCell id="ia9NDkQKJK2XyitmC3DI-12" value="" style="rounded=1;whiteSpace=wrap;html=1;opacity=50;textOpacity=50;fillColor=#fff2cc;strokeColor=#d6b656;" vertex="1" parent="1">
          <mxGeometry x="190" y="230" width="120" height="60" as="geometry" />
        </mxCell>
        <mxCell id="ia9NDkQKJK2XyitmC3DI-13" value="Queries \(Q=IW^Q\)&lt;br&gt;\([h, l, d_k]\)" style="rounded=1;whiteSpace=wrap;html=1;fillColor=#fff2cc;strokeColor=#d6b656;" vertex="1" parent="1">
          <mxGeometry x="200" y="240" width="120" height="60" as="geometry" />
        </mxCell>
        <mxCell id="ia9NDkQKJK2XyitmC3DI-17" style="edgeStyle=orthogonalEdgeStyle;rounded=0;orthogonalLoop=1;jettySize=auto;html=1;entryX=0;entryY=0.5;entryDx=0;entryDy=0;" edge="1" parent="1" source="ia9NDkQKJK2XyitmC3DI-4" target="ia9NDkQKJK2XyitmC3DI-13">
          <mxGeometry relative="1" as="geometry" />
        </mxCell>
        <mxCell id="ia9NDkQKJK2XyitmC3DI-14" style="edgeStyle=orthogonalEdgeStyle;rounded=0;orthogonalLoop=1;jettySize=auto;html=1;" edge="1" parent="1" source="ia9NDkQKJK2XyitmC3DI-4" target="ia9NDkQKJK2XyitmC3DI-10">
          <mxGeometry relative="1" as="geometry" />
        </mxCell>
        <mxCell id="ia9NDkQKJK2XyitmC3DI-18" value="" style="rounded=1;whiteSpace=wrap;html=1;opacity=25;dashed=1;textOpacity=25;fillColor=#d5e8d4;strokeColor=#82b366;" vertex="1" parent="1">
          <mxGeometry x="180" y="310" width="120" height="60" as="geometry" />
        </mxCell>
        <mxCell id="ia9NDkQKJK2XyitmC3DI-19" value="" style="rounded=1;whiteSpace=wrap;html=1;opacity=50;textOpacity=50;fillColor=#d5e8d4;strokeColor=#82b366;" vertex="1" parent="1">
          <mxGeometry x="190" y="320" width="120" height="60" as="geometry" />
        </mxCell>
        <mxCell id="ia9NDkQKJK2XyitmC3DI-39" style="edgeStyle=orthogonalEdgeStyle;rounded=0;orthogonalLoop=1;jettySize=auto;html=1;" edge="1" parent="1" source="ia9NDkQKJK2XyitmC3DI-20" target="ia9NDkQKJK2XyitmC3DI-37">
          <mxGeometry relative="1" as="geometry" />
        </mxCell>
        <mxCell id="ia9NDkQKJK2XyitmC3DI-20" value="Values \(V=IW^V\)&lt;br&gt;\([h, l, d_v]\)" style="rounded=1;whiteSpace=wrap;html=1;fillColor=#d5e8d4;strokeColor=#82b366;" vertex="1" parent="1">
          <mxGeometry x="200" y="330" width="120" height="60" as="geometry" />
        </mxCell>
        <mxCell id="ia9NDkQKJK2XyitmC3DI-22" value="" style="rounded=1;whiteSpace=wrap;html=1;opacity=25;dashed=1;textOpacity=25;fillColor=#ffe6cc;strokeColor=#d79b00;" vertex="1" parent="1">
          <mxGeometry x="350" y="130" width="120" height="120" as="geometry" />
        </mxCell>
        <mxCell id="ia9NDkQKJK2XyitmC3DI-23" value="" style="rounded=1;whiteSpace=wrap;html=1;opacity=50;textOpacity=50;fillColor=#ffe6cc;strokeColor=#d79b00;" vertex="1" parent="1">
          <mxGeometry x="360" y="140" width="120" height="120" as="geometry" />
        </mxCell>
        <mxCell id="ia9NDkQKJK2XyitmC3DI-24" value="&lt;p style=&quot;line-height: 100%;&quot;&gt;Self-attention \(A\)&lt;/p&gt;&lt;p style=&quot;line-height: 100%;&quot;&gt;\(=softmax \biggl( \frac{QK^T}{\sqrt{d_k}} \biggl) \)&lt;br&gt;&lt;/p&gt;&lt;p style=&quot;line-height: 100%;&quot;&gt;&lt;span style=&quot;background-color: initial;&quot;&gt;$$[h, l, l]$$&lt;/span&gt;&lt;br&gt;&lt;/p&gt;" style="rounded=1;whiteSpace=wrap;html=1;fillColor=#ffe6cc;strokeColor=#d79b00;" vertex="1" parent="1">
          <mxGeometry x="370" y="150" width="120" height="120" as="geometry" />
        </mxCell>
        <mxCell id="ia9NDkQKJK2XyitmC3DI-25" style="edgeStyle=orthogonalEdgeStyle;rounded=0;orthogonalLoop=1;jettySize=auto;html=1;" edge="1" parent="1" source="ia9NDkQKJK2XyitmC3DI-10" target="ia9NDkQKJK2XyitmC3DI-24">
          <mxGeometry relative="1" as="geometry" />
        </mxCell>
        <mxCell id="ia9NDkQKJK2XyitmC3DI-26" style="edgeStyle=orthogonalEdgeStyle;rounded=0;orthogonalLoop=1;jettySize=auto;html=1;" edge="1" parent="1" source="ia9NDkQKJK2XyitmC3DI-13" target="ia9NDkQKJK2XyitmC3DI-24">
          <mxGeometry relative="1" as="geometry" />
        </mxCell>
        <mxCell id="ia9NDkQKJK2XyitmC3DI-27" value="&lt;span style=&quot;&quot;&gt;&lt;br&gt;&lt;/span&gt;" style="text;html=1;align=center;verticalAlign=middle;resizable=0;points=[];autosize=1;strokeColor=none;fillColor=none;" vertex="1" parent="1">
          <mxGeometry x="420" y="298" width="20" height="30" as="geometry" />
        </mxCell>
        <mxCell id="ia9NDkQKJK2XyitmC3DI-28" value="&lt;font style=&quot;font-size: 20px;&quot;&gt;Parameters&lt;br&gt;\(l\) input sequence length&lt;br&gt;\(u\) input sequence dimensions&lt;br&gt;\(h\) transformer head count&lt;br&gt;\(d_k\) key dimension&lt;br&gt;\(d_v\) value dimension&lt;br&gt;\(i\) intermediate size&lt;br&gt;&lt;/font&gt;" style="text;html=1;align=center;verticalAlign=middle;resizable=0;points=[];autosize=1;strokeColor=none;fillColor=none;" vertex="1" parent="1">
          <mxGeometry x="640" y="223" width="310" height="180" as="geometry" />
        </mxCell>
        <mxCell id="ia9NDkQKJK2XyitmC3DI-35" value="" style="rounded=1;whiteSpace=wrap;html=1;opacity=25;dashed=1;textOpacity=25;fillColor=#f8cecc;strokeColor=#b85450;" vertex="1" parent="1">
          <mxGeometry x="500" y="130" width="120" height="60" as="geometry" />
        </mxCell>
        <mxCell id="ia9NDkQKJK2XyitmC3DI-36" value="" style="rounded=1;whiteSpace=wrap;html=1;opacity=50;textOpacity=50;fillColor=#f8cecc;strokeColor=#b85450;" vertex="1" parent="1">
          <mxGeometry x="510" y="140" width="120" height="60" as="geometry" />
        </mxCell>
        <mxCell id="ia9NDkQKJK2XyitmC3DI-42" style="edgeStyle=orthogonalEdgeStyle;rounded=0;orthogonalLoop=1;jettySize=auto;html=1;entryX=0;entryY=0.5;entryDx=0;entryDy=0;" edge="1" parent="1" source="ia9NDkQKJK2XyitmC3DI-37" target="ia9NDkQKJK2XyitmC3DI-41">
          <mxGeometry relative="1" as="geometry" />
        </mxCell>
        <mxCell id="ia9NDkQKJK2XyitmC3DI-37" value="Output \(=AV\)&lt;br&gt;\([h, l, d_k]\)" style="rounded=1;whiteSpace=wrap;html=1;fillColor=#f8cecc;strokeColor=#b85450;" vertex="1" parent="1">
          <mxGeometry x="520" y="150" width="120" height="60" as="geometry" />
        </mxCell>
        <mxCell id="ia9NDkQKJK2XyitmC3DI-38" style="edgeStyle=orthogonalEdgeStyle;rounded=0;orthogonalLoop=1;jettySize=auto;html=1;" edge="1" parent="1" source="ia9NDkQKJK2XyitmC3DI-24" target="ia9NDkQKJK2XyitmC3DI-37">
          <mxGeometry relative="1" as="geometry" />
        </mxCell>
        <mxCell id="ia9NDkQKJK2XyitmC3DI-48" value="" style="edgeStyle=orthogonalEdgeStyle;rounded=0;orthogonalLoop=1;jettySize=auto;html=1;" edge="1" parent="1" source="ia9NDkQKJK2XyitmC3DI-41" target="ia9NDkQKJK2XyitmC3DI-47">
          <mxGeometry relative="1" as="geometry" />
        </mxCell>
        <mxCell id="ia9NDkQKJK2XyitmC3DI-41" value="Concatenate&lt;br&gt;\([l, h \cdot d_k]\)" style="rounded=1;whiteSpace=wrap;html=1;fillColor=#e1d5e7;strokeColor=#9673a6;" vertex="1" parent="1">
          <mxGeometry x="670" y="150" width="120" height="60" as="geometry" />
        </mxCell>
        <mxCell id="ia9NDkQKJK2XyitmC3DI-50" style="edgeStyle=orthogonalEdgeStyle;rounded=0;orthogonalLoop=1;jettySize=auto;html=1;" edge="1" parent="1" source="ia9NDkQKJK2XyitmC3DI-47" target="ia9NDkQKJK2XyitmC3DI-49">
          <mxGeometry relative="1" as="geometry" />
        </mxCell>
        <mxCell id="ia9NDkQKJK2XyitmC3DI-47" value="Dense layer&lt;br&gt;no activation&lt;br&gt;\([l, h]\)" style="whiteSpace=wrap;html=1;rounded=1;fillColor=#f8cecc;strokeColor=#b85450;" vertex="1" parent="1">
          <mxGeometry x="820" y="150" width="120" height="60" as="geometry" />
        </mxCell>
        <mxCell id="ia9NDkQKJK2XyitmC3DI-54" style="edgeStyle=orthogonalEdgeStyle;rounded=0;orthogonalLoop=1;jettySize=auto;html=1;" edge="1" parent="1" source="ia9NDkQKJK2XyitmC3DI-49" target="ia9NDkQKJK2XyitmC3DI-53">
          <mxGeometry relative="1" as="geometry" />
        </mxCell>
        <mxCell id="ia9NDkQKJK2XyitmC3DI-49" value="+" style="ellipse;whiteSpace=wrap;html=1;aspect=fixed;" vertex="1" parent="1">
          <mxGeometry x="970" y="110" width="20" height="20" as="geometry" />
        </mxCell>
        <mxCell id="ia9NDkQKJK2XyitmC3DI-53" value="Layer normalization&lt;br&gt;\([l, h]\)" style="whiteSpace=wrap;html=1;rounded=1;fillColor=#d5e8d4;strokeColor=#82b366;" vertex="1" parent="1">
          <mxGeometry x="1010" y="90" width="120" height="60" as="geometry" />
        </mxCell>
        <mxCell id="ia9NDkQKJK2XyitmC3DI-57" value="Transformer attention" style="text;html=1;strokeColor=none;fillColor=none;align=center;verticalAlign=middle;whiteSpace=wrap;rounded=0;fontSize=20;" vertex="1" parent="1">
          <mxGeometry x="438.75" y="60" width="247.5" height="30" as="geometry" />
        </mxCell>
        <mxCell id="ia9NDkQKJK2XyitmC3DI-58" value="" style="rounded=1;whiteSpace=wrap;html=1;opacity=50;fillColor=#e1d5e7;strokeColor=#9673a6;" vertex="1" parent="1">
          <mxGeometry y="450" width="1150" height="200" as="geometry" />
        </mxCell>
        <mxCell id="ia9NDkQKJK2XyitmC3DI-60" style="edgeStyle=orthogonalEdgeStyle;rounded=0;orthogonalLoop=1;jettySize=auto;html=1;" edge="1" parent="1" target="ia9NDkQKJK2XyitmC3DI-59">
          <mxGeometry relative="1" as="geometry">
            <mxPoint x="-10" y="530" as="sourcePoint" />
          </mxGeometry>
        </mxCell>
        <mxCell id="ia9NDkQKJK2XyitmC3DI-62" style="edgeStyle=orthogonalEdgeStyle;rounded=0;orthogonalLoop=1;jettySize=auto;html=1;entryX=0;entryY=0.5;entryDx=0;entryDy=0;" edge="1" parent="1" source="ia9NDkQKJK2XyitmC3DI-59" target="ia9NDkQKJK2XyitmC3DI-61">
          <mxGeometry relative="1" as="geometry" />
        </mxCell>
        <mxCell id="ia9NDkQKJK2XyitmC3DI-67" style="edgeStyle=orthogonalEdgeStyle;rounded=0;orthogonalLoop=1;jettySize=auto;html=1;" edge="1" parent="1" source="ia9NDkQKJK2XyitmC3DI-59" target="ia9NDkQKJK2XyitmC3DI-65">
          <mxGeometry relative="1" as="geometry" />
        </mxCell>
        <mxCell id="ia9NDkQKJK2XyitmC3DI-59" value="Input values \(I\)&lt;br&gt;$$[l, u]$$" style="rounded=1;whiteSpace=wrap;html=1;fillColor=#dae8fc;strokeColor=#6c8ebf;" vertex="1" parent="1">
          <mxGeometry x="20" y="500" width="120" height="60" as="geometry" />
        </mxCell>
        <mxCell id="ia9NDkQKJK2XyitmC3DI-64" style="edgeStyle=orthogonalEdgeStyle;rounded=0;orthogonalLoop=1;jettySize=auto;html=1;entryX=0;entryY=0.5;entryDx=0;entryDy=0;" edge="1" parent="1" source="ia9NDkQKJK2XyitmC3DI-61" target="ia9NDkQKJK2XyitmC3DI-63">
          <mxGeometry relative="1" as="geometry" />
        </mxCell>
        <mxCell id="ia9NDkQKJK2XyitmC3DI-61" value="Dense layer&lt;br&gt;ReLU activation&lt;br&gt;\([l, i]\)" style="rounded=1;whiteSpace=wrap;html=1;fillColor=#dae8fc;strokeColor=#6c8ebf;" vertex="1" parent="1">
          <mxGeometry x="180" y="570" width="120" height="60" as="geometry" />
        </mxCell>
        <mxCell id="ia9NDkQKJK2XyitmC3DI-66" style="edgeStyle=orthogonalEdgeStyle;rounded=0;orthogonalLoop=1;jettySize=auto;html=1;entryX=0.5;entryY=1;entryDx=0;entryDy=0;" edge="1" parent="1" source="ia9NDkQKJK2XyitmC3DI-63" target="ia9NDkQKJK2XyitmC3DI-65">
          <mxGeometry relative="1" as="geometry" />
        </mxCell>
        <mxCell id="ia9NDkQKJK2XyitmC3DI-63" value="Dense layer&lt;br&gt;no activation&lt;br&gt;\([l, u]\)" style="rounded=1;whiteSpace=wrap;html=1;fillColor=#dae8fc;strokeColor=#6c8ebf;" vertex="1" parent="1">
          <mxGeometry x="340" y="570" width="120" height="60" as="geometry" />
        </mxCell>
        <mxCell id="ia9NDkQKJK2XyitmC3DI-69" style="edgeStyle=orthogonalEdgeStyle;rounded=0;orthogonalLoop=1;jettySize=auto;html=1;" edge="1" parent="1" source="ia9NDkQKJK2XyitmC3DI-65" target="ia9NDkQKJK2XyitmC3DI-68">
          <mxGeometry relative="1" as="geometry" />
        </mxCell>
        <mxCell id="ia9NDkQKJK2XyitmC3DI-65" value="+" style="ellipse;whiteSpace=wrap;html=1;aspect=fixed;" vertex="1" parent="1">
          <mxGeometry x="490" y="520" width="20" height="20" as="geometry" />
        </mxCell>
        <mxCell id="ia9NDkQKJK2XyitmC3DI-70" style="edgeStyle=orthogonalEdgeStyle;rounded=0;orthogonalLoop=1;jettySize=auto;html=1;" edge="1" parent="1" source="ia9NDkQKJK2XyitmC3DI-68" target="ia9NDkQKJK2XyitmC3DI-75">
          <mxGeometry relative="1" as="geometry">
            <mxPoint x="1171" y="530" as="targetPoint" />
          </mxGeometry>
        </mxCell>
        <mxCell id="ia9NDkQKJK2XyitmC3DI-68" value="Layer normalization&lt;br&gt;\([l, h]\)" style="whiteSpace=wrap;html=1;rounded=1;fillColor=#d5e8d4;strokeColor=#82b366;" vertex="1" parent="1">
          <mxGeometry x="530" y="500" width="120" height="60" as="geometry" />
        </mxCell>
        <mxCell id="ia9NDkQKJK2XyitmC3DI-71" value="Transformer MLP" style="text;html=1;strokeColor=none;fillColor=none;align=center;verticalAlign=middle;whiteSpace=wrap;rounded=0;fontSize=20;" vertex="1" parent="1">
          <mxGeometry x="451.25" y="460" width="247.5" height="30" as="geometry" />
        </mxCell>
        <mxCell id="ia9NDkQKJK2XyitmC3DI-72" value="" style="endArrow=oval;html=1;rounded=0;exitX=1;exitY=0.5;exitDx=0;exitDy=0;endFill=1;strokeWidth=1;endSize=1;" edge="1" parent="1" source="ia9NDkQKJK2XyitmC3DI-53">
          <mxGeometry width="50" height="50" relative="1" as="geometry">
            <mxPoint x="1020" y="320" as="sourcePoint" />
            <mxPoint x="1160" y="440" as="targetPoint" />
            <Array as="points">
              <mxPoint x="1160" y="120" />
            </Array>
          </mxGeometry>
        </mxCell>
        <mxCell id="ia9NDkQKJK2XyitmC3DI-73" value="" style="endArrow=none;html=1;rounded=0;startArrow=oval;startFill=1;endSize=6;startSize=1;" edge="1" parent="1">
          <mxGeometry width="50" height="50" relative="1" as="geometry">
            <mxPoint x="-10" y="440" as="sourcePoint" />
            <mxPoint x="1160" y="440" as="targetPoint" />
          </mxGeometry>
        </mxCell>
        <mxCell id="ia9NDkQKJK2XyitmC3DI-74" value="" style="endArrow=none;html=1;rounded=0;startArrow=oval;startFill=1;startSize=1;" edge="1" parent="1">
          <mxGeometry width="50" height="50" relative="1" as="geometry">
            <mxPoint x="-10" y="530" as="sourcePoint" />
            <mxPoint x="-10" y="440" as="targetPoint" />
          </mxGeometry>
        </mxCell>
        <mxCell id="ia9NDkQKJK2XyitmC3DI-76" style="edgeStyle=orthogonalEdgeStyle;rounded=0;orthogonalLoop=1;jettySize=auto;html=1;" edge="1" parent="1" source="ia9NDkQKJK2XyitmC3DI-75">
          <mxGeometry relative="1" as="geometry">
            <mxPoint x="1170" y="530" as="targetPoint" />
          </mxGeometry>
        </mxCell>
        <mxCell id="ia9NDkQKJK2XyitmC3DI-75" value="Output values&lt;br&gt;\([l, u]\)" style="whiteSpace=wrap;html=1;rounded=1;fillColor=#f8cecc;strokeColor=#b85450;" vertex="1" parent="1">
          <mxGeometry x="1010" y="500" width="120" height="60" as="geometry" />
        </mxCell>
      </root>
    </mxGraphModel>
  </diagram>
</mxfile>
